<svg width="32" height="32" viewBox="0 0 32 32" fill="none" xmlns="http://www.w3.org/2000/svg">
<g clip-path="url(#clip0_5_2190)">
<path d="M24.5324 23.0749L9.35319 7.89567C8.85852 7.401 8.05652 7.401 7.56185 7.89567L7.46757 7.98995C6.97291 8.48461 6.97291 9.28662 7.46757 9.78129L22.6468 24.9605C23.1415 25.4552 23.9435 25.4552 24.4381 24.9605L24.5324 24.8662C25.0271 24.3716 25.0271 23.5696 24.5324 23.0749Z" fill="#23262F"/>
<path d="M22.6468 7.92511L7.46757 23.1043C6.9729 23.599 6.9729 24.401 7.46757 24.8957L7.56185 24.9899C8.05651 25.4846 8.85852 25.4846 9.35319 24.9899L24.5324 9.81072C25.0271 9.31606 25.0271 8.51405 24.5324 8.01939L24.4381 7.92511C23.9435 7.43044 23.1415 7.43044 22.6468 7.92511Z" fill="#23262F"/>
</g>
<defs>
<clipPath id="clip0_5_2190">
<rect width="32" height="32" fill="white"/>
</clipPath>
</defs>
</svg>
